REM DIRINDEX 1\2,1\3,1\4,1\5,1\6
REM DIRNAME folder01,folder02,folder03,folder04,folder05,folder06
TITLE ""
FILE "Disc1Track40.mp3" MP3
  TRACK 01 AUDIO
    TITLE "3:cjc030_00959"
    INDEX 01 00:00:00
  TRACK 02 AUDIO
    TITLE "0:"
    INDEX 01 00:01:07
  TRACK 03 AUDIO
    TITLE "4:cjc030_00960"
    INDEX 01 00:01:17
  TRACK 04 AUDIO
    TITLE "0:"
    INDEX 01 00:03:41
  TRACK 05 AUDIO
    TITLE "5:cjc030_00961"
    INDEX 01 00:03:49
  TRACK 06 AUDIO
    TITLE "0:"
    INDEX 01 00:04:62
  TRACK 07 AUDIO
    TITLE "6:cjc030_00962"
    INDEX 01 00:04:74
  TRACK 08 AUDIO
    TITLE "0:"
    INDEX 01 00:11:17
  TRACK 09 AUDIO
    TITLE "3:cjc030_00963"
    INDEX 01 00:11:66
  TRACK 10 AUDIO
    TITLE "0:"
    INDEX 01 00:13:02
  TRACK 11 AUDIO
    TITLE "4:cjc030_00964"
    INDEX 01 00:13:10
  TRACK 12 AUDIO
    TITLE "0:"
    INDEX 01 00:14:11
  TRACK 13 AUDIO
    TITLE "5:cjc030_00965"
    INDEX 01 00:14:21
  TRACK 14 AUDIO
    TITLE "0:"
    INDEX 01 00:15:32
  TRACK 15 AUDIO
    TITLE "3:cjc030_00966"
    INDEX 01 00:16:06
  TRACK 16 AUDIO
    TITLE "0:"
    INDEX 01 00:17:25
  TRACK 17 AUDIO
    TITLE "4:cjc030_00967"
    INDEX 01 00:17:35
  TRACK 18 AUDIO
    TITLE "0:"
    INDEX 01 00:19:42
  TRACK 19 AUDIO
    TITLE "5:cjc030_00968"
    INDEX 01 00:19:50
  TRACK 20 AUDIO
    TITLE "0:"
    INDEX 01 00:20:71
  TRACK 21 AUDIO
    TITLE "6:cjc030_00969"
    INDEX 01 00:21:09
  TRACK 22 AUDIO
    TITLE "0:"
    INDEX 01 00:25:52
  TRACK 23 AUDIO
    TITLE "3:cjc030_00970"
    INDEX 01 00:26:26
  TRACK 24 AUDIO
    TITLE "0:"
    INDEX 01 00:27:55
  TRACK 25 AUDIO
    TITLE "4:cjc030_00971"
    INDEX 01 00:27:65
  TRACK 26 AUDIO
    TITLE "0:"
    INDEX 01 00:28:72
  TRACK 27 AUDIO
    TITLE "5:cjc030_00972"
    INDEX 01 00:29:05
  TRACK 28 AUDIO
    TITLE "0:"
    INDEX 01 00:30:34
  TRACK 29 AUDIO
    TITLE "6:cjc030_00973"
    INDEX 01 00:30:48
  TRACK 30 AUDIO
    TITLE "0:"
    INDEX 01 00:34:38
  TRACK 31 AUDIO
    TITLE "3:cjc030_00974"
    INDEX 01 00:35:12
  TRACK 32 AUDIO
    TITLE "0:"
    INDEX 01 00:36:40
  TRACK 33 AUDIO
    TITLE "4:cjc030_00975"
    INDEX 01 00:36:52
  TRACK 34 AUDIO
    TITLE "0:"
    INDEX 01 00:38:39
  TRACK 35 AUDIO
    TITLE "5:cjc030_00976"
    INDEX 01 00:38:49
  TRACK 36 AUDIO
    TITLE "0:"
    INDEX 01 00:40:01
  TRACK 37 AUDIO
    TITLE "3:cjc030_00977"
    INDEX 01 00:40:50
  TRACK 38 AUDIO
    TITLE "0:"
    INDEX 01 00:42:04
  TRACK 39 AUDIO
    TITLE "4:cjc030_00978"
    INDEX 01 00:42:10
  TRACK 40 AUDIO
    TITLE "0:"
    INDEX 01 00:43:07
  TRACK 41 AUDIO
    TITLE "5:cjc030_00979"
    INDEX 01 00:43:13
  TRACK 42 AUDIO
    TITLE "0:"
    INDEX 01 00:44:40
  TRACK 43 AUDIO
    TITLE "6:cjc030_00980"
    INDEX 01 00:44:54
  TRACK 44 AUDIO
    TITLE "0:"
    INDEX 01 00:48:65
  TRACK 45 AUDIO
    TITLE "3:cjc030_00981"
    INDEX 01 00:49:39
  TRACK 46 AUDIO
    TITLE "0:"
    INDEX 01 00:50:66
  TRACK 47 AUDIO
    TITLE "4:cjc030_00982"
    INDEX 01 00:50:74
  TRACK 48 AUDIO
    TITLE "0:"
    INDEX 01 00:52:22
  TRACK 49 AUDIO
    TITLE "5:cjc030_00983"
    INDEX 01 00:52:28
  TRACK 50 AUDIO
    TITLE "0:"
    INDEX 01 00:53:57
  TRACK 51 AUDIO
    TITLE "6:cjc030_00984"
    INDEX 01 00:53:70
  TRACK 52 AUDIO
    TITLE "0:"
    INDEX 01 00:55:61
  TRACK 53 AUDIO
    TITLE "3:cjc030_00985"
    INDEX 01 00:56:33
  TRACK 54 AUDIO
    TITLE "0:"
    INDEX 01 00:57:56
  TRACK 55 AUDIO
    TITLE "4:cjc030_00986"
    INDEX 01 00:57:66
  TRACK 56 AUDIO
    TITLE "0:"
    INDEX 01 00:58:71
  TRACK 57 AUDIO
    TITLE "5:cjc030_00987"
    INDEX 01 00:59:06
  TRACK 58 AUDIO
    TITLE "0:"
    INDEX 01 01:00:29
  TRACK 59 AUDIO
    TITLE "3:cjc030_00988"
    INDEX 01 01:01:03
  TRACK 60 AUDIO
    TITLE "0:"
    INDEX 01 01:02:40
  TRACK 61 AUDIO
    TITLE "4:cjc030_00989"
    INDEX 01 01:02:50
  TRACK 62 AUDIO
    TITLE "0:"
    INDEX 01 01:03:59
  TRACK 63 AUDIO
    TITLE "5:cjc030_00990"
    INDEX 01 01:03:67
  TRACK 64 AUDIO
    TITLE "0:"
    INDEX 01 01:05:32
